# xmcd
#
# Track frame offsets:
#	150
#	20445
#	39911
#	88679
#	102311
#	122269
#	161454
#	181470
#	212103
#	247003
#	277340
#
# Disc length: 4078 seconds
#
# Revision: 1
# Processed by: cddbd v1.5.2PL0 Copyright (c) Steve Scherf et al.
# Submitted via: audiograbber 1.83.01
#
DISCID=930fec0b
DTITLE=Grateful Dead - 80-05-08 Glens Falls Civic Centre, Glens Falls NY
DYEAR=1900
DGENRE=
TTITLE0=Alabama Getaway
TTITLE1=Promised Land
TTITLE2=Friend Of The Devil
TTITLE3=Mama Tried
TTITLE4=Mexicali Blues
TTITLE5=High Time
TTITLE6=Lazy Lightning
TTITLE7=Supplication
TTITLE8=Ramble On Rose
TTITLE9=Lost Sailor
TTITLE10=Saint Of Circumstance
EXTD=
EXTT0=
EXTT1=
EXTT2=
EXTT3=
EXTT4=
EXTT5=
EXTT6=
EXTT7=
EXTT8=
EXTT9=
EXTT10=
PLAYORDER=
